<svg width="16" height="19" viewBox="0 0 16 19" fill="none" xmlns="http://www.w3.org/2000/svg">
<g clip-path="url(#clip0_1_3731)">
<path d="M8.00234 5.62578C5.73091 5.62578 3.89877 7.42929 3.89877 9.66523C3.89877 11.9012 5.73091 13.7047 8.00234 13.7047C10.2738 13.7047 12.1059 11.9012 12.1059 9.66523C12.1059 7.42929 10.2738 5.62578 8.00234 5.62578ZM8.00234 12.2914C6.53448 12.2914 5.33448 11.1137 5.33448 9.66523C5.33448 8.21679 6.53091 7.03906 8.00234 7.03906C9.47377 7.03906 10.6702 8.21679 10.6702 9.66523C10.6702 11.1137 9.47019 12.2914 8.00234 12.2914ZM13.2309 5.46054C13.2309 5.98437 12.8023 6.40273 12.2738 6.40273C11.7416 6.40273 11.3166 5.98086 11.3166 5.46054C11.3166 4.94023 11.7452 4.51836 12.2738 4.51836C12.8023 4.51836 13.2309 4.94023 13.2309 5.46054ZM15.9488 6.41679C15.888 5.15469 15.5952 4.03672 14.6559 3.11562C13.7202 2.19453 12.5845 1.90625 11.3023 1.84297C9.98091 1.76914 6.0202 1.76914 4.69877 1.84297C3.4202 1.90273 2.28449 2.19102 1.3452 3.11211C0.405915 4.0332 0.116629 5.15117 0.0523437 6.41328C-0.0226562 7.71406 -0.0226562 11.6129 0.0523437 12.9137C0.113058 14.1758 0.405915 15.2937 1.3452 16.2148C2.28449 17.1359 3.41663 17.4242 4.69877 17.4875C6.0202 17.5613 9.98091 17.5613 11.3023 17.4875C12.5845 17.4277 13.7202 17.1394 14.6559 16.2148C15.5916 15.2937 15.8845 14.1758 15.9488 12.9137C16.0238 11.6129 16.0238 7.71758 15.9488 6.41679ZM14.2416 14.3094C13.963 14.9984 13.4238 15.5293 12.7202 15.807C11.6666 16.2184 9.16662 16.1234 8.00234 16.1234C6.83805 16.1234 4.33448 16.2148 3.28448 15.807C2.58448 15.5328 2.0452 15.0019 1.76306 14.3094C1.3452 13.2723 1.44163 10.8113 1.44163 9.66523C1.44163 8.51914 1.34877 6.05469 1.76306 5.02109C2.04163 4.33203 2.58091 3.80117 3.28448 3.52344C4.33806 3.11211 6.83805 3.20703 8.00234 3.20703C9.16662 3.20703 11.6702 3.11562 12.7202 3.52344C13.4202 3.79766 13.9595 4.32851 14.2416 5.02109C14.6595 6.0582 14.563 8.51914 14.563 9.66523C14.563 10.8113 14.6595 13.2758 14.2416 14.3094Z" fill="white"/>
</g>
<defs>
<clipPath id="clip0_1_3731">
<rect width="16" height="18" fill="white" transform="translate(0 0.668457)"/>
</clipPath>
</defs>
</svg>
