<svg width="16" height="16" viewBox="0 0 16 16" fill="none" xmlns="http://www.w3.org/2000/svg">
<g clip-path="url(#clip0_1_3727)">
<path d="M3.63269 15.6685V5.54799H0.202386V15.6685H3.63269ZM1.91798 4.16538C3.11419 4.16538 3.85877 3.38824 3.85877 2.41708C3.83648 1.42402 3.11423 0.668457 1.94068 0.668457C0.767312 0.668457 0 1.42404 0 2.41708C0 3.38829 0.744398 4.16538 1.89559 4.16538H1.91787H1.91798ZM5.53135 15.6685H8.96165V10.0167C8.96165 9.71422 8.98394 9.41206 9.07452 9.19584C9.32251 8.5915 9.88693 7.96558 10.8345 7.96558C12.0758 7.96558 12.5724 8.89366 12.5724 10.2542V15.6684H16.0025V9.86541C16.0025 6.75679 14.3101 5.31039 12.0532 5.31039C10.2027 5.31039 9.39021 6.32472 8.93883 7.01557H8.96173V5.54778H5.53143C5.57644 6.49743 5.53143 15.6683 5.53143 15.6683L5.53135 15.6685Z" fill="white"/>
</g>
<defs>
<clipPath id="clip0_1_3727">
<rect width="16" height="15" fill="white" transform="translate(0 0.668457)"/>
</clipPath>
</defs>
</svg>
